<?xml version="1.0" encoding="UTF-8" standalone="no"?>
<!DOCTYPE svg PUBLIC "-//W3C//DTD SVG 1.1//EN" "http://www.w3.org/Graphics/SVG/1.1/DTD/svg11.dtd">
<svg width="100%" height="100%" viewBox="0 0 960 960" version="1.1" xmlns="http://www.w3.org/2000/svg" xmlns:xlink="http://www.w3.org/1999/xlink" xml:space="preserve" xmlns:serif="http://www.serif.com/" style="fill-rule:evenodd;clip-rule:evenodd;stroke-linejoin:round;stroke-miterlimit:2;">
    <g transform="matrix(2,0,0,2,353.52,31.2264)">
        <path d="M0,0C6.954,4.702 13.19,9.939 18.992,16.02C21.286,18.282 23.726,20.247 26.25,22.25C31.037,26.084 35.298,30.218 39.563,34.606C43.506,38.621 47.717,42.11 52.234,45.477C52.817,45.979 53.4,46.482 54,47L54,49C54.549,49.231 55.098,49.461 55.664,49.699C58.661,51.368 60.87,53.468 63.375,55.813C63.89,56.292 64.406,56.771 64.937,57.265C66.628,58.839 68.314,60.419 70,62C72.414,64.252 74.832,66.502 77.25,68.75C78.148,69.586 78.148,69.586 79.063,70.438C82.636,73.757 86.253,77.01 89.945,80.195C92.669,82.588 95.333,85.044 98,87.5C101.961,91.147 105.958,94.743 110.023,98.273C116.626,104.041 123.077,109.979 129.534,115.909C134.325,120.307 139.159,124.657 144,129C145.667,130.5 147.334,132 149,133.5C150.238,134.614 150.238,134.614 151.5,135.75C159,142.5 159,142.5 161.512,144.762C163.138,146.224 164.765,147.685 166.395,149.145C171.721,153.92 177,158.743 182.233,163.619C185.436,166.595 188.71,169.443 192.063,172.25C196.88,176.572 199.475,180.355 200.406,186.82C200.783,194.194 199.416,200.02 195,206C182.719,218.155 168.751,214 151,214L151,394L-168,394C-168.103,348.068 -168.206,302.136 -168.313,254.813C-168.358,240.292 -168.404,225.772 -168.45,210.812C-168.473,193.124 -168.473,193.124 -168.477,184.853C-168.482,179.057 -168.5,173.261 -168.528,167.466C-168.56,160.785 -168.574,154.105 -168.567,147.424C-168.564,144.005 -168.569,140.586 -168.596,137.167C-168.621,133.509 -168.615,129.852 -168.601,126.193C-168.616,125.122 -168.63,124.052 -168.645,122.949C-168.572,115.73 -168.572,115.73 -165.576,111.909C-164.301,110.964 -164.301,110.964 -163,110C-162.4,109.425 -161.8,108.85 -161.182,108.258C-159.352,106.546 -157.521,104.834 -155.688,103.125C-154.682,102.188 -154.682,102.188 -153.657,101.231C-149.834,97.676 -145.977,94.175 -142.02,90.77C-139.305,88.391 -136.654,85.945 -134,83.5C-130.743,80.5 -127.478,77.517 -124.125,74.625C-120.332,71.34 -116.669,67.922 -113,64.5C-108.69,60.48 -104.357,56.505 -99.898,52.648C-94.607,48.054 -89.416,43.346 -84.32,38.535C-83.688,37.94 -83.056,37.346 -82.405,36.733C-81.148,35.548 -79.895,34.359 -78.646,33.166C-74.222,29 -74.222,29 -72,29L-72,27C-70.403,25.588 -68.745,24.246 -67.063,22.938C-63.327,19.96 -59.863,16.952 -56.563,13.5C-41.844,-1.508 -20.187,-11.768 0,0Z" style="fill:none;fill-rule:nonzero;stroke:black;stroke-width:20px;"/>
    </g>
    <g transform="matrix(2,0,0,2,335.536,469.164)">
        <path d="M0,0C19.427,10.07 36.949,12.409 57.992,6.031C58.889,5.657 59.787,5.284 60.711,4.898C62.992,4.031 62.992,4.031 66.992,4.031L66.992,2.031C69.004,0.664 69.004,0.664 71.68,-0.844C75.389,-2.984 78.666,-5.266 81.992,-7.969L83.992,-7.969C82.529,-3.48 80.037,-0.242 76.992,3.281C76.257,4.136 76.257,4.136 75.508,5.008C62.445,19.953 47.099,30.236 26.992,32.031C11.742,32.792 -1.152,31.813 -14.98,24.98C-19.292,22.859 -23.692,20.988 -28.133,19.156C-28.843,18.858 -29.554,18.56 -30.286,18.253C-46.498,11.592 -66.283,13.85 -82.164,20.316C-88.999,23.479 -94.748,27.612 -100.609,32.273C-103.008,34.031 -103.008,34.031 -105.008,34.031C-103.553,29.603 -101.138,26.389 -98.133,22.906C-97.646,22.341 -97.159,21.775 -96.657,21.193C-70.679,-8.437 -35.728,-18.686 0,0Z" style="fill-rule:nonzero;stroke:black;stroke-width:10px;"/>
    </g>
    <g transform="matrix(2,0,0,2,345.738,603.108)">
        <path d="M0,0C0.664,0.314 1.328,0.627 2.012,0.95C3.842,1.818 5.665,2.698 7.488,3.578C21.74,9.78 39.783,8.987 54.262,3.688C61.475,0.45 68.496,-3.188 74.66,-8.188C76.891,-9.941 76.891,-9.941 78.891,-9.941C76.623,-5.042 73.28,-1.108 69.891,3.059C69.28,3.819 68.669,4.58 68.039,5.363C56.853,18.667 40.164,27.728 22.891,30.059C5.789,31.274 -8.527,28.161 -24.109,21.059C-26.138,20.137 -28.167,19.219 -30.201,18.31C-31.551,17.705 -32.898,17.092 -34.24,16.469C-47.948,10.304 -64.434,9.95 -78.637,14.668C-88.799,18.738 -98.016,23.298 -106.289,30.59C-108.109,32.059 -108.109,32.059 -110.109,32.059C-108.655,27.63 -106.239,24.417 -103.234,20.934C-102.749,20.368 -102.264,19.803 -101.763,19.22C-72.526,-14.202 -38.815,-18.379 0,0Z" style="fill-rule:nonzero;stroke:black;stroke-width:10px;"/>
    </g>
    <g transform="matrix(2,0,0,2,339.67,341.202)">
        <path d="M0,0C2.939,1.545 5.92,2.973 8.925,4.387C9.895,4.849 10.864,5.31 11.863,5.786C25.059,11.071 42.68,11.19 55.925,6.012C63.727,2.658 70.763,-1.129 77.156,-6.8C77.74,-7.192 78.324,-7.584 78.925,-7.988C79.915,-7.658 80.905,-7.328 81.925,-6.988C69.945,9.831 54.396,25.937 33.482,30.621C27.911,31.473 22.301,31.486 16.675,31.512C14.899,31.522 14.899,31.522 13.087,31.531C2.252,31.375 -6.939,28.76 -16.825,24.512C-17.527,24.217 -18.23,23.922 -18.954,23.618C-21.643,22.485 -24.324,21.335 -27.004,20.183C-31.547,18.228 -31.547,18.228 -36.137,16.387C-36.747,16.147 -37.357,15.908 -37.985,15.661C-49.941,11.951 -64.386,13.116 -76.075,17.012C-77.473,17.447 -77.473,17.447 -78.899,17.891C-89.27,21.348 -97.663,27.145 -106.075,34.012C-106.57,32.527 -106.57,32.527 -107.075,31.012C-102.416,23.927 -96.16,17.875 -90.075,12.012C-89.296,11.204 -88.518,10.396 -87.715,9.563C-63.233,-14.086 -28.904,-15.412 0,0Z" style="fill-rule:nonzero;stroke:black;stroke-width:10px;"/>
    </g>
    <g transform="matrix(2,0,0,2,936.886,590.138)">
        <path d="M0,0C8.507,6.9 8.507,6.9 9.063,11.5C8.918,12.614 8.774,13.727 8.625,14.875C5.343,17.063 4.432,17.46 0.625,16.875C-1.926,14.969 -1.926,14.969 -4.688,12.375C-9.309,8.257 -14.01,5.17 -19.563,2.438C-20.203,2.12 -20.843,1.803 -21.503,1.477C-23.441,0.555 -25.395,-0.298 -27.375,-1.125C-28.385,-1.557 -28.385,-1.557 -29.415,-1.997C-35.959,-4.506 -42.239,-4.607 -49.188,-4.563C-50.836,-4.592 -50.836,-4.592 -52.518,-4.623C-63.154,-4.617 -72.276,-1.747 -81.438,3.563C-82.018,3.896 -82.598,4.23 -83.196,4.574C-88.261,7.585 -92.508,11.218 -96.777,15.285C-99.375,16.875 -99.375,16.875 -103.129,16.746C-104.736,16.315 -104.736,16.315 -106.375,15.875C-107.875,12.875 -107.88,11.22 -107.375,7.875C-97.951,-5.38 -79.427,-13.09 -64.125,-16.375C-41.231,-20.026 -18.179,-14.298 0,0Z" style="fill-rule:nonzero;stroke:black;stroke-width:5px;"/>
    </g>
    <g transform="matrix(2,0,0,2,915.01,635.888)">
        <path d="M0,0C2.573,3.013 2.979,3.558 3.125,7.25C2.563,11 2.563,11 0.563,13C-2.063,13.563 -2.063,13.563 -5.438,13C-7.538,11.425 -9.394,9.678 -11.309,7.883C-20.138,0.074 -30.605,-1.547 -42.074,-1.305C-53.756,-0.246 -63.181,4.743 -71.438,13C-75,12.75 -75,12.75 -78.438,12C-79.937,9 -79.942,7.345 -79.438,4C-72.514,-5.939 -59.462,-11.217 -48.063,-13.75C-29.633,-15.021 -14.906,-11.014 0,0Z" style="fill-rule:nonzero;stroke:black;stroke-width:5px;"/>
    </g>
    <g transform="matrix(2,0,0,2,868.9,672.592)">
        <path d="M0,0C3.199,2.015 5.408,3.572 7.617,6.648C8.182,9.615 8.08,10.903 6.492,13.461C3.539,15.331 2.104,15.219 -1.383,14.648C-3.035,13.694 -4.658,12.688 -6.258,11.648C-10.043,9.276 -12.798,7.71 -17.313,8.039C-20.933,9.105 -23.908,11.257 -27.047,13.305C-29.994,15 -32.049,15.315 -35.383,14.648C-37.383,12.648 -37.383,12.648 -37.945,9.398C-37.263,4.849 -36.137,3.681 -32.563,1.004C-21.378,-5.951 -11.55,-6.39 0,0Z" style="fill-rule:nonzero;stroke:black;stroke-width:5px;"/>
    </g>
    <g transform="matrix(2,0,0,2,835.01,718.888)">
        <path d="M0,0C8.47,1.189 8.47,1.189 11.438,4.75C12.782,8.037 13.066,9.977 12.563,13.5C9.439,19.208 9.439,19.208 5.563,20.5C2.474,20.957 -0.358,21.056 -3.438,20.5C-6.596,17.922 -7.973,16.436 -8.91,12.531C-9.193,8.754 -8.576,6.101 -6.375,3C-3.438,0.5 -3.438,0.5 0,0Z" style="fill-rule:nonzero;stroke:black;stroke-width:5px;"/>
    </g>
</svg>
