<?xml version="1.0" encoding="UTF-8" standalone="no"?>
<!DOCTYPE svg PUBLIC "-//W3C//DTD SVG 1.1//EN" "http://www.w3.org/Graphics/SVG/1.1/DTD/svg11.dtd">
<svg width="100%" height="100%" viewBox="0 0 960 960" version="1.1" xmlns="http://www.w3.org/2000/svg" xmlns:xlink="http://www.w3.org/1999/xlink" xml:space="preserve" xmlns:serif="http://www.serif.com/" style="fill-rule:evenodd;clip-rule:evenodd;stroke-linejoin:round;stroke-miterlimit:2;">
    <g transform="matrix(1,0,0,1,39.8826,-138.756)">
        <path d="M352.286,183.958L719.073,515.678C739.144,533.83 740.699,564.816 722.547,584.887C713.257,595.159 700.055,601.02 686.205,601.02L637.991,601.02L637.99,960L0,960L0,401.768L237.919,184.265C270.262,154.696 319.784,154.564 352.286,183.958ZM222.04,724.2C194.143,728.474 162.485,745.836 137.519,770.554C121.906,786.014 107.042,804.808 108.048,807.819C108.404,808.881 114.831,805.151 122.33,799.528C140.03,786.259 158.974,777.292 179.813,772.32L196.565,768.324L216.196,769.255C238.351,770.304 248.27,773.138 280.455,787.61C312.509,802.023 324.839,804.926 353.614,804.831C381.868,804.739 394.601,801.954 416.154,791.154C439.349,779.533 458.847,762.516 475.556,739.316C480.204,732.864 483.523,727.105 482.932,726.516C482.343,725.927 476.568,729.411 470.099,734.258C447.792,750.969 423.597,760.131 395.64,762.454C372.986,764.338 355.168,759.835 320.896,743.565C319.266,742.791 317.613,742.018 315.953,741.251L314.845,740.741C314.106,740.402 313.367,740.065 312.628,739.729L311.519,739.228C298.413,733.314 285.676,728.166 280.698,726.855C266.542,723.128 237.588,721.817 222.04,724.2ZM229.591,595.112C206.683,597.76 184.616,606.217 164.495,620.058C146.78,632.244 105.951,675.717 109.181,678.958C109.675,679.451 115.799,675.544 122.793,670.274C150.316,649.537 177.98,640.029 210.808,640.029C235.466,640.029 246.217,642.788 280.476,657.91C316.716,673.903 327.175,676.214 358.979,675.257L384.224,674.498L400.43,668.794C420.707,661.661 444.499,645.994 459.525,629.882C460.49,628.848 461.453,627.793 462.407,626.729L463.121,625.928L463.832,625.125C474.218,613.322 483.167,600.785 481.875,599.488C481.387,599 474.657,603.156 466.917,608.725C436.482,630.627 397.501,639.146 362.122,631.628C354.573,630.023 337.41,623.205 320.046,614.915C280.497,596.029 260.158,591.576 229.591,595.112ZM222.433,465.745C186.633,471.716 151.637,493.872 122.63,528.932C114.583,538.656 108,547.833 108,549.326C108,551.215 108.71,551.49 110.336,550.229L110.506,550.097C111.898,549.017 116.334,545.566 121.044,541.897L122.01,541.144C122.225,540.977 122.441,540.809 122.656,540.641C136.611,529.775 164.409,516.473 179.943,513.227C196.669,509.735 225.267,509.716 239.981,513.19C244.623,514.286 254.907,518.009 265.64,522.391L266.791,522.863C266.983,522.942 267.175,523.021 267.368,523.1L268.522,523.579C271.407,524.78 274.291,526.016 277.074,527.248C313.213,543.252 326.376,546.608 352.793,546.552C396.355,546.46 428.9,532.201 459.353,499.866C461.45,497.64 463.601,495.229 465.712,492.762L466.413,491.937C475.746,480.926 484.054,469.112 482.891,467.947C482.504,467.561 475.969,471.71 468.37,477.168C441.956,496.137 419.183,503.579 387.363,503.637C362.127,503.686 356.949,502.281 322.895,486.16C321.867,485.673 320.834,485.186 319.798,484.702L318.244,483.976L317.208,483.494C317.036,483.414 316.863,483.334 316.691,483.254L315.657,482.775C303.091,476.969 291.077,471.769 287.028,470.429C267.768,464.052 243.249,462.275 222.433,465.745Z"/>
        <path d="M839.777,695.658C864.256,702.04 896.778,720.731 910.308,736.197C916.919,743.75 917.57,747.553 913.305,753.663C908.136,761.071 901.056,759.167 886.92,746.575C872.896,734.083 850.851,722.3 832.04,717.243C813.389,712.227 782.503,712.653 764.699,718.172C744.878,724.314 724.524,735.449 711.088,747.501C698.96,758.377 692.632,760.335 687.202,754.887C681.164,748.826 683.517,742.04 695.532,730.877C715.944,711.912 747.547,696.591 775.344,692.183C791.349,689.645 823.323,691.368 839.777,695.658"/>
        <path d="M823.216,744.477C840.229,748.083 861.52,758.82 872.971,769.571C882.757,778.759 884.099,783.024 879.345,789.811C874.716,796.423 867.114,795.204 856.701,786.182C839.255,771.07 813.391,762.546 792.227,764.933C772.236,767.188 749.702,777.404 738.565,789.259C730.464,797.882 718,793.968 718,782.8C718,771.367 750.139,750.153 775.861,744.607C791.786,741.175 807.424,741.132 823.216,744.477"/>
        <path d="M817.019,801.573C828.539,805 841.897,814.781 844.262,821.52C845.552,825.195 845.196,827.626 842.839,831.233C838.712,837.545 830.736,837.593 823.334,831.351C808.851,819.137 793.734,818.546 779.25,829.627C770.159,836.58 763.525,837.717 758.927,833.11C754.079,828.25 755.343,820.607 762.053,814.227C776.818,800.183 796.854,795.571 817.019,801.573"/>
        <path d="M811.238,856.273C823.141,863.511 824.393,880.247 813.702,889.217C804.078,897.29 788.12,894.792 782.712,884.366C772.591,864.853 792.728,845.02 811.238,856.273"/>
    </g>
</svg>
